<svg width="116" height="35" viewBox="0 0 116 35" fill="none" xmlns="http://www.w3.org/2000/svg">
<path d="M7.07812 0.875V35H0.046875V0.875H7.07812ZM27.5156 0.875L13.9922 17.7266L6.1875 26.1172L4.92188 19.4609L10.1953 12.2422L18.8906 0.875H27.5156ZM19.5234 35L9.46875 19.2266L14.6719 14.8672L27.8438 35H19.5234ZM53.7656 22.25V27.5469H29.1797L28.8516 23.4453L43.0781 0.875H48.4453L42.6328 10.6016L35.5547 22.25H53.7656ZM49.8984 0.875V35H43.1484V0.875H49.8984ZM61.3359 0.875H67.2891L76.0547 25.9297L84.8203 0.875H90.7734L78.4453 35H73.6641L61.3359 0.875ZM58.125 0.875H64.0547L65.1328 25.2969V35H58.125V0.875ZM88.0547 0.875H94.0078V35H86.9766V25.2969L88.0547 0.875ZM115.922 0.804688V35H109.172V8.58594L101.062 11.1641V5.84375L115.195 0.804688H115.922Z" fill="black"/>
</svg>
